<svg width="152" height="31" viewBox="0 0 152 31" fill="none" xmlns="http://www.w3.org/2000/svg">
<rect width="152" height="31" rx="15.5" fill="#F4F5F6"/>
<path d="M29.8175 17.6234C30.2084 17.3668 30.7217 17.6468 30.7217 18.1134V18.8659C30.7217 19.6068 30.1442 20.4001 29.45 20.6334L27.5892 21.2518C27.2625 21.3626 26.7317 21.3626 26.4109 21.2518L24.55 20.6334C23.85 20.4001 23.2784 19.6068 23.2784 18.8659V18.1076C23.2784 17.6468 23.7917 17.3668 24.1767 17.6176L25.3784 18.3993C25.8392 18.7084 26.4225 18.8601 27.0059 18.8601C27.5892 18.8601 28.1725 18.7084 28.6334 18.3993L29.8175 17.6234Z" fill="black"/>
<path d="M31.655 12.2684L28.1608 9.97591C27.5308 9.56174 26.4925 9.56174 25.8625 9.97591L22.3508 12.2684C21.225 12.9976 21.225 14.6484 22.3508 15.3834L23.2842 15.9901L25.8625 17.6701C26.4925 18.0842 27.5308 18.0842 28.1608 17.6701L30.7217 15.9901L31.5208 15.4651V17.2501C31.5208 17.4892 31.7192 17.6876 31.9583 17.6876C32.1975 17.6876 32.3958 17.4892 32.3958 17.2501V14.3801C32.6292 13.6276 32.39 12.7526 31.655 12.2684Z" fill="black"/>
<path d="M51.4555 20.072C50.6235 20.072 49.8675 19.888 49.1875 19.52C48.5155 19.144 47.9875 18.632 47.6035 17.984C47.2275 17.336 47.0395 16.608 47.0395 15.8C47.0395 14.992 47.2275 14.264 47.6035 13.616C47.9875 12.968 48.5155 12.46 49.1875 12.092C49.8675 11.716 50.6235 11.528 51.4555 11.528C52.2875 11.528 53.0355 11.712 53.6995 12.08C54.3715 12.448 54.8995 12.96 55.2835 13.616C55.6675 14.264 55.8595 14.992 55.8595 15.8C55.8595 16.608 55.6675 17.34 55.2835 17.996C54.8995 18.644 54.3715 19.152 53.6995 19.52C53.0355 19.888 52.2875 20.072 51.4555 20.072ZM51.4555 19.28C52.1195 19.28 52.7195 19.132 53.2555 18.836C53.7915 18.532 54.2115 18.116 54.5155 17.588C54.8195 17.052 54.9715 16.456 54.9715 15.8C54.9715 15.144 54.8195 14.552 54.5155 14.024C54.2115 13.488 53.7915 13.072 53.2555 12.776C52.7195 12.472 52.1195 12.32 51.4555 12.32C50.7915 12.32 50.1875 12.472 49.6435 12.776C49.1075 13.072 48.6835 13.488 48.3715 14.024C48.0675 14.552 47.9155 15.144 47.9155 15.8C47.9155 16.456 48.0675 17.052 48.3715 17.588C48.6835 18.116 49.1075 18.532 49.6435 18.836C50.1875 19.132 50.7915 19.28 51.4555 19.28ZM60.8345 13.844C61.4185 13.844 61.9385 13.976 62.3945 14.24C62.8585 14.496 63.2185 14.86 63.4745 15.332C63.7305 15.796 63.8585 16.328 63.8585 16.928C63.8585 17.544 63.7225 18.092 63.4505 18.572C63.1865 19.044 62.8145 19.412 62.3345 19.676C61.8545 19.94 61.3025 20.072 60.6785 20.072C59.6305 20.072 58.8185 19.704 58.2425 18.968C57.6665 18.232 57.3785 17.216 57.3785 15.92C57.3785 14.568 57.6345 13.532 58.1465 12.812C58.6665 12.092 59.4745 11.604 60.5705 11.348L63.4025 10.7L63.5465 11.48L60.8825 12.092C59.9785 12.292 59.3145 12.648 58.8905 13.16C58.4665 13.664 58.2345 14.412 58.1945 15.404C58.4505 14.916 58.8065 14.536 59.2625 14.264C59.7185 13.984 60.2425 13.844 60.8345 13.844ZM60.7025 19.364C61.1425 19.364 61.5345 19.264 61.8785 19.064C62.2305 18.856 62.5025 18.568 62.6945 18.2C62.8945 17.832 62.9945 17.416 62.9945 16.952C62.9945 16.488 62.8985 16.08 62.7065 15.728C62.5145 15.376 62.2425 15.104 61.8905 14.912C61.5465 14.712 61.1505 14.612 60.7025 14.612C60.2545 14.612 59.8545 14.712 59.5025 14.912C59.1585 15.104 58.8865 15.376 58.6865 15.728C58.4945 16.08 58.3985 16.488 58.3985 16.952C58.3985 17.416 58.4945 17.832 58.6865 18.2C58.8865 18.568 59.1625 18.856 59.5145 19.064C59.8665 19.264 60.2625 19.364 60.7025 19.364ZM68.9367 13.64C69.5287 13.64 70.0647 13.776 70.5447 14.048C71.0247 14.312 71.4007 14.688 71.6727 15.176C71.9447 15.664 72.0807 16.22 72.0807 16.844C72.0807 17.476 71.9447 18.036 71.6727 18.524C71.4007 19.012 71.0247 19.392 70.5447 19.664C70.0727 19.928 69.5367 20.06 68.9367 20.06C68.4247 20.06 67.9607 19.956 67.5447 19.748C67.1367 19.532 66.8007 19.22 66.5367 18.812V22.328H65.6847V13.688H66.5007V14.936C66.7567 14.52 67.0927 14.2 67.5087 13.976C67.9327 13.752 68.4087 13.64 68.9367 13.64ZM68.8767 19.304C69.3167 19.304 69.7167 19.204 70.0767 19.004C70.4367 18.796 70.7167 18.504 70.9167 18.128C71.1247 17.752 71.2287 17.324 71.2287 16.844C71.2287 16.364 71.1247 15.94 70.9167 15.572C70.7167 15.196 70.4367 14.904 70.0767 14.696C69.7167 14.488 69.3167 14.384 68.8767 14.384C68.4287 14.384 68.0247 14.488 67.6647 14.696C67.3127 14.904 67.0327 15.196 66.8247 15.572C66.6247 15.94 66.5247 16.364 66.5247 16.844C66.5247 17.324 66.6247 17.752 66.8247 18.128C67.0327 18.504 67.3127 18.796 67.6647 19.004C68.0247 19.204 68.4287 19.304 68.8767 19.304ZM76.0481 13.64C76.8721 13.64 77.5041 13.848 77.9441 14.264C78.3841 14.672 78.6041 15.28 78.6041 16.088V20H77.7881V19.016C77.5961 19.344 77.3121 19.6 76.9361 19.784C76.5681 19.968 76.1281 20.06 75.6161 20.06C74.9121 20.06 74.3521 19.892 73.9361 19.556C73.5201 19.22 73.3121 18.776 73.3121 18.224C73.3121 17.688 73.5041 17.256 73.8881 16.928C74.2801 16.6 74.9001 16.436 75.7481 16.436H77.7521V16.052C77.7521 15.508 77.6001 15.096 77.2961 14.816C76.9921 14.528 76.5481 14.384 75.9641 14.384C75.5641 14.384 75.1801 14.452 74.8121 14.588C74.4441 14.716 74.1281 14.896 73.8641 15.128L73.4801 14.492C73.8001 14.22 74.1841 14.012 74.6321 13.868C75.0801 13.716 75.5521 13.64 76.0481 13.64ZM75.7481 19.388C76.2281 19.388 76.6401 19.28 76.9841 19.064C77.3281 18.84 77.5841 18.52 77.7521 18.104V17.072H75.7721C74.6921 17.072 74.1521 17.448 74.1521 18.2C74.1521 18.568 74.2921 18.86 74.5721 19.076C74.8521 19.284 75.2441 19.388 75.7481 19.388ZM83.8153 16.712C84.2633 16.816 84.6073 16.996 84.8473 17.252C85.0953 17.508 85.2193 17.82 85.2193 18.188C85.2193 18.556 85.0913 18.884 84.8353 19.172C84.5873 19.46 84.2473 19.684 83.8153 19.844C83.3833 19.996 82.9073 20.072 82.3873 20.072C81.9313 20.072 81.4833 20.008 81.0433 19.88C80.6033 19.744 80.2193 19.548 79.8913 19.292L80.1793 18.656C80.4673 18.872 80.8033 19.04 81.1873 19.16C81.5713 19.28 81.9593 19.34 82.3513 19.34C82.9353 19.34 83.4113 19.232 83.7793 19.016C84.1553 18.792 84.3433 18.492 84.3433 18.116C84.3433 17.78 84.1913 17.52 83.8873 17.336C83.5833 17.144 83.1673 17.048 82.6393 17.048H81.5593V16.424H82.5913C83.0633 16.424 83.4433 16.336 83.7313 16.16C84.0193 15.976 84.1633 15.732 84.1633 15.428C84.1633 15.092 83.9993 14.828 83.6713 14.636C83.3513 14.444 82.9313 14.348 82.4113 14.348C81.7313 14.348 81.0593 14.52 80.3953 14.864L80.1553 14.204C80.9073 13.812 81.6873 13.616 82.4953 13.616C82.9753 13.616 83.4073 13.688 83.7913 13.832C84.1833 13.968 84.4873 14.164 84.7033 14.42C84.9273 14.676 85.0393 14.972 85.0393 15.308C85.0393 15.628 84.9273 15.912 84.7033 16.16C84.4873 16.408 84.1913 16.592 83.8153 16.712ZM89.7574 20.06C89.1494 20.06 88.6014 19.924 88.1134 19.652C87.6254 19.372 87.2414 18.988 86.9614 18.5C86.6814 18.012 86.5414 17.46 86.5414 16.844C86.5414 16.228 86.6814 15.676 86.9614 15.188C87.2414 14.7 87.6254 14.32 88.1134 14.048C88.6014 13.776 89.1494 13.64 89.7574 13.64C90.3654 13.64 90.9134 13.776 91.4014 14.048C91.8894 14.32 92.2694 14.7 92.5414 15.188C92.8214 15.676 92.9614 16.228 92.9614 16.844C92.9614 17.46 92.8214 18.012 92.5414 18.5C92.2694 18.988 91.8894 19.372 91.4014 19.652C90.9134 19.924 90.3654 20.06 89.7574 20.06ZM89.7574 19.304C90.2054 19.304 90.6054 19.204 90.9574 19.004C91.3174 18.796 91.5974 18.504 91.7974 18.128C91.9974 17.752 92.0974 17.324 92.0974 16.844C92.0974 16.364 91.9974 15.936 91.7974 15.56C91.5974 15.184 91.3174 14.896 90.9574 14.696C90.6054 14.488 90.2054 14.384 89.7574 14.384C89.3094 14.384 88.9054 14.488 88.5454 14.696C88.1934 14.896 87.9134 15.184 87.7054 15.56C87.5054 15.936 87.4054 16.364 87.4054 16.844C87.4054 17.324 87.5054 17.752 87.7054 18.128C87.9134 18.504 88.1934 18.796 88.5454 19.004C88.9054 19.204 89.3094 19.304 89.7574 19.304ZM98.8023 16.736C99.6583 16.936 100.086 17.452 100.086 18.284C100.086 18.836 99.8823 19.26 99.4743 19.556C99.0663 19.852 98.4583 20 97.6503 20H94.7823V13.688H97.5663C98.2863 13.688 98.8503 13.828 99.2583 14.108C99.6663 14.388 99.8703 14.788 99.8703 15.308C99.8703 15.652 99.7743 15.948 99.5823 16.196C99.3983 16.436 99.1383 16.616 98.8023 16.736ZM95.6103 16.496H97.5063C97.9943 16.496 98.3663 16.404 98.6223 16.22C98.8863 16.036 99.0183 15.768 99.0183 15.416C99.0183 15.064 98.8863 14.8 98.6223 14.624C98.3663 14.448 97.9943 14.36 97.5063 14.36H95.6103V16.496ZM97.6143 19.328C98.1583 19.328 98.5663 19.24 98.8383 19.064C99.1103 18.888 99.2463 18.612 99.2463 18.236C99.2463 17.86 99.1223 17.584 98.8743 17.408C98.6263 17.224 98.2343 17.132 97.6983 17.132H95.6103V19.328H97.6143ZM104.255 13.64C105.079 13.64 105.711 13.848 106.151 14.264C106.591 14.672 106.811 15.28 106.811 16.088V20H105.995V19.016C105.803 19.344 105.519 19.6 105.143 19.784C104.775 19.968 104.335 20.06 103.823 20.06C103.119 20.06 102.559 19.892 102.143 19.556C101.727 19.22 101.519 18.776 101.519 18.224C101.519 17.688 101.711 17.256 102.095 16.928C102.487 16.6 103.107 16.436 103.955 16.436H105.959V16.052C105.959 15.508 105.807 15.096 105.503 14.816C105.199 14.528 104.755 14.384 104.171 14.384C103.771 14.384 103.387 14.452 103.019 14.588C102.651 14.716 102.335 14.896 102.071 15.128L101.687 14.492C102.007 14.22 102.391 14.012 102.839 13.868C103.287 13.716 103.759 13.64 104.255 13.64ZM103.955 19.388C104.435 19.388 104.847 19.28 105.191 19.064C105.535 18.84 105.791 18.52 105.959 18.104V17.072H103.979C102.899 17.072 102.359 17.448 102.359 18.2C102.359 18.568 102.499 18.86 102.779 19.076C103.059 19.284 103.451 19.388 103.955 19.388ZM109.079 13.688H109.931V16.484H113.903V13.688H114.755V20H113.903V17.216H109.931V20H109.079V13.688ZM117.177 13.688H118.029V18.704L122.241 13.688H122.997V20H122.145V14.984L117.945 20H117.177V13.688ZM130.959 17.108H125.679C125.727 17.764 125.979 18.296 126.435 18.704C126.891 19.104 127.467 19.304 128.163 19.304C128.555 19.304 128.915 19.236 129.243 19.1C129.571 18.956 129.855 18.748 130.095 18.476L130.575 19.028C130.295 19.364 129.943 19.62 129.519 19.796C129.103 19.972 128.643 20.06 128.139 20.06C127.491 20.06 126.915 19.924 126.411 19.652C125.915 19.372 125.527 18.988 125.247 18.5C124.967 18.012 124.827 17.46 124.827 16.844C124.827 16.228 124.959 15.676 125.223 15.188C125.495 14.7 125.863 14.32 126.327 14.048C126.799 13.776 127.327 13.64 127.911 13.64C128.495 13.64 129.019 13.776 129.483 14.048C129.947 14.32 130.311 14.7 130.575 15.188C130.839 15.668 130.971 16.22 130.971 16.844L130.959 17.108ZM127.911 14.372C127.303 14.372 126.791 14.568 126.375 14.96C125.967 15.344 125.735 15.848 125.679 16.472H130.155C130.099 15.848 129.863 15.344 129.447 14.96C129.039 14.568 128.527 14.372 127.911 14.372Z" fill="black"/>
</svg>
