<svg width="149" height="31" viewBox="0 0 149 31" fill="none" xmlns="http://www.w3.org/2000/svg">
<rect width="149" height="31" rx="15.5" fill="#F4F5F6"/>
<path d="M29.9167 9.6665H24.0833C22.8 9.6665 21.75 10.7165 21.75 11.9998V18.9998C21.75 20.2832 22.8 21.3332 24.0833 21.3332H29.9167C31.2 21.3332 32.25 20.2832 32.25 18.9998V11.9998C32.25 10.7165 31.2 9.6665 29.9167 9.6665ZM26.335 19.0815C26.2475 19.169 26.1367 19.2098 26.0258 19.2098C25.915 19.2098 25.8042 19.169 25.7167 19.0815L25.3375 18.7023L24.9758 19.064C24.8883 19.1515 24.7775 19.1923 24.6667 19.1923C24.5558 19.1923 24.445 19.1515 24.3575 19.064C24.1883 18.8948 24.1883 18.6148 24.3575 18.4457L24.7192 18.084L24.375 17.7398C24.2058 17.5707 24.2058 17.2907 24.375 17.1215C24.5442 16.9523 24.8242 16.9523 24.9933 17.1215L25.3375 17.4657L25.6992 17.104C25.8683 16.9348 26.1483 16.9348 26.3175 17.104C26.4867 17.2732 26.4867 17.5532 26.3175 17.7223L25.9558 18.084L26.335 18.4632C26.5042 18.6323 26.5042 18.9123 26.335 19.0815ZM28.4525 19.2857C28.1317 19.2857 27.8692 19.029 27.8692 18.7082V18.6965C27.8692 18.3757 28.1317 18.1132 28.4525 18.1132C28.7733 18.1132 29.0358 18.3757 29.0358 18.6965C29.0358 19.0173 28.7733 19.2857 28.4525 19.2857ZM29.6308 18.0257C29.31 18.0257 29.0417 17.7632 29.0417 17.4423C29.0417 17.1215 29.2983 16.859 29.6192 16.859H29.6308C29.9517 16.859 30.2142 17.1215 30.2142 17.4423C30.2142 17.7632 29.9517 18.0257 29.6308 18.0257ZM30.5 13.8957C30.5 14.4557 30.0392 14.9165 29.4792 14.9165H24.5208C23.9608 14.9165 23.5 14.4557 23.5 13.8957V12.4373C23.5 11.8773 23.9608 11.4165 24.5208 11.4165H29.4792C30.0392 11.4165 30.5 11.8773 30.5 12.4373V13.8957Z" fill="black"/>
<path d="M50.9799 11.6C52.0519 11.6 52.8919 11.856 53.4999 12.368C54.1079 12.88 54.4119 13.584 54.4119 14.48C54.4119 15.376 54.1079 16.08 53.4999 16.592C52.8919 17.096 52.0519 17.348 50.9799 17.348H48.7239V20H47.8359V11.6H50.9799ZM50.9559 16.568C51.7879 16.568 52.4239 16.388 52.8639 16.028C53.3039 15.66 53.5239 15.144 53.5239 14.48C53.5239 13.8 53.3039 13.28 52.8639 12.92C52.4239 12.552 51.7879 12.368 50.9559 12.368H48.7239V16.568H50.9559ZM58.1477 13.64C58.9717 13.64 59.6037 13.848 60.0437 14.264C60.4837 14.672 60.7037 15.28 60.7037 16.088V20H59.8877V19.016C59.6957 19.344 59.4117 19.6 59.0357 19.784C58.6677 19.968 58.2277 20.06 57.7157 20.06C57.0117 20.06 56.4517 19.892 56.0357 19.556C55.6197 19.22 55.4117 18.776 55.4117 18.224C55.4117 17.688 55.6037 17.256 55.9877 16.928C56.3797 16.6 56.9997 16.436 57.8477 16.436H59.8517V16.052C59.8517 15.508 59.6997 15.096 59.3957 14.816C59.0917 14.528 58.6477 14.384 58.0637 14.384C57.6637 14.384 57.2797 14.452 56.9117 14.588C56.5437 14.716 56.2277 14.896 55.9637 15.128L55.5797 14.492C55.8997 14.22 56.2837 14.012 56.7317 13.868C57.1797 13.716 57.6517 13.64 58.1477 13.64ZM57.8477 19.388C58.3277 19.388 58.7397 19.28 59.0837 19.064C59.4277 18.84 59.6837 18.52 59.8517 18.104V17.072H57.8717C56.7917 17.072 56.2517 17.448 56.2517 18.2C56.2517 18.568 56.3917 18.86 56.6717 19.076C56.9517 19.284 57.3437 19.388 57.8477 19.388ZM65.9149 16.712C66.3629 16.816 66.7069 16.996 66.9469 17.252C67.1949 17.508 67.3189 17.82 67.3189 18.188C67.3189 18.556 67.1909 18.884 66.9349 19.172C66.6869 19.46 66.3469 19.684 65.9149 19.844C65.4829 19.996 65.0069 20.072 64.4869 20.072C64.0309 20.072 63.5829 20.008 63.1429 19.88C62.7029 19.744 62.3189 19.548 61.9909 19.292L62.2789 18.656C62.5669 18.872 62.9029 19.04 63.2869 19.16C63.6709 19.28 64.0589 19.34 64.4509 19.34C65.0349 19.34 65.5109 19.232 65.8789 19.016C66.2549 18.792 66.4429 18.492 66.4429 18.116C66.4429 17.78 66.2909 17.52 65.9869 17.336C65.6829 17.144 65.2669 17.048 64.7389 17.048H63.6589V16.424H64.6909C65.1629 16.424 65.5429 16.336 65.8309 16.16C66.1189 15.976 66.2629 15.732 66.2629 15.428C66.2629 15.092 66.0989 14.828 65.7709 14.636C65.4509 14.444 65.0309 14.348 64.5109 14.348C63.8309 14.348 63.1589 14.52 62.4949 14.864L62.2549 14.204C63.0069 13.812 63.7869 13.616 64.5949 13.616C65.0749 13.616 65.5069 13.688 65.8909 13.832C66.2829 13.968 66.5869 14.164 66.8029 14.42C67.0269 14.676 67.1389 14.972 67.1389 15.308C67.1389 15.628 67.0269 15.912 66.8029 16.16C66.5869 16.408 66.2909 16.592 65.9149 16.712ZM73.273 16.736C74.129 16.936 74.557 17.452 74.557 18.284C74.557 18.836 74.353 19.26 73.945 19.556C73.537 19.852 72.929 20 72.121 20H69.253V13.688H72.037C72.757 13.688 73.321 13.828 73.729 14.108C74.137 14.388 74.341 14.788 74.341 15.308C74.341 15.652 74.245 15.948 74.053 16.196C73.869 16.436 73.609 16.616 73.273 16.736ZM70.081 16.496H71.977C72.465 16.496 72.837 16.404 73.093 16.22C73.357 16.036 73.489 15.768 73.489 15.416C73.489 15.064 73.357 14.8 73.093 14.624C72.837 14.448 72.465 14.36 71.977 14.36H70.081V16.496ZM72.085 19.328C72.629 19.328 73.037 19.24 73.309 19.064C73.581 18.888 73.717 18.612 73.717 18.236C73.717 17.86 73.593 17.584 73.345 17.408C73.097 17.224 72.705 17.132 72.169 17.132H70.081V19.328H72.085ZM81.7138 13.688V20H80.8618V14.444H77.8378L77.7538 16.004C77.6898 17.316 77.5378 18.324 77.2978 19.028C77.0578 19.732 76.6298 20.084 76.0138 20.084C75.8458 20.084 75.6418 20.052 75.4018 19.988L75.4618 19.256C75.6058 19.288 75.7058 19.304 75.7618 19.304C76.0898 19.304 76.3378 19.152 76.5058 18.848C76.6738 18.544 76.7858 18.168 76.8418 17.72C76.8978 17.272 76.9458 16.68 76.9858 15.944L77.0938 13.688H81.7138ZM89.6558 17.108H84.3758C84.4238 17.764 84.6758 18.296 85.1318 18.704C85.5878 19.104 86.1638 19.304 86.8598 19.304C87.2518 19.304 87.6118 19.236 87.9398 19.1C88.2678 18.956 88.5518 18.748 88.7918 18.476L89.2718 19.028C88.9918 19.364 88.6398 19.62 88.2158 19.796C87.7998 19.972 87.3398 20.06 86.8358 20.06C86.1878 20.06 85.6118 19.924 85.1078 19.652C84.6118 19.372 84.2238 18.988 83.9438 18.5C83.6638 18.012 83.5238 17.46 83.5238 16.844C83.5238 16.228 83.6558 15.676 83.9198 15.188C84.1918 14.7 84.5598 14.32 85.0238 14.048C85.4958 13.776 86.0238 13.64 86.6078 13.64C87.1918 13.64 87.7158 13.776 88.1798 14.048C88.6438 14.32 89.0078 14.7 89.2718 15.188C89.5358 15.668 89.6678 16.22 89.6678 16.844L89.6558 17.108ZM86.6078 14.372C85.9998 14.372 85.4878 14.568 85.0718 14.96C84.6638 15.344 84.4318 15.848 84.3758 16.472H88.8518C88.7958 15.848 88.5598 15.344 88.1438 14.96C87.7358 14.568 87.2238 14.372 86.6078 14.372ZM96.3178 13.688V20H95.4658V17.372C94.7378 17.692 94.0218 17.852 93.3178 17.852C92.5578 17.852 91.9658 17.68 91.5418 17.336C91.1178 16.984 90.9058 16.46 90.9058 15.764V13.688H91.7578V15.716C91.7578 16.188 91.9098 16.548 92.2138 16.796C92.5178 17.036 92.9378 17.156 93.4738 17.156C94.0658 17.156 94.7298 17 95.4658 16.688V13.688H96.3178ZM104.257 17.108H98.9774C99.0254 17.764 99.2774 18.296 99.7334 18.704C100.189 19.104 100.765 19.304 101.461 19.304C101.853 19.304 102.213 19.236 102.541 19.1C102.869 18.956 103.153 18.748 103.393 18.476L103.873 19.028C103.593 19.364 103.241 19.62 102.817 19.796C102.401 19.972 101.941 20.06 101.437 20.06C100.789 20.06 100.213 19.924 99.7094 19.652C99.2134 19.372 98.8254 18.988 98.5454 18.5C98.2654 18.012 98.1254 17.46 98.1254 16.844C98.1254 16.228 98.2574 15.676 98.5214 15.188C98.7934 14.7 99.1614 14.32 99.6254 14.048C100.097 13.776 100.625 13.64 101.209 13.64C101.793 13.64 102.317 13.776 102.781 14.048C103.245 14.32 103.609 14.7 103.873 15.188C104.137 15.668 104.269 16.22 104.269 16.844L104.257 17.108ZM101.209 14.372C100.601 14.372 100.089 14.568 99.6734 14.96C99.2654 15.344 99.0334 15.848 98.9774 16.472H103.453C103.397 15.848 103.161 15.344 102.745 14.96C102.337 14.568 101.825 14.372 101.209 14.372ZM106.155 13.688H107.007V16.484H110.979V13.688H111.831V20H110.979V17.216H107.007V20H106.155V13.688ZM114.253 13.688H115.105V18.704L119.317 13.688H120.073V20H119.221V14.984L115.021 20H114.253V13.688ZM127.363 13.688V20H126.583V17.912H124.603H124.363L122.899 20H121.975L123.547 17.792C123.059 17.656 122.683 17.424 122.419 17.096C122.155 16.768 122.023 16.352 122.023 15.848C122.023 15.144 122.263 14.608 122.743 14.24C123.223 13.872 123.879 13.688 124.711 13.688H127.363ZM122.887 15.872C122.887 16.808 123.483 17.276 124.675 17.276H126.583V14.444H124.735C123.503 14.444 122.887 14.92 122.887 15.872Z" fill="black"/>
</svg>
