<svg width="109" height="31" viewBox="0 0 109 31" fill="none" xmlns="http://www.w3.org/2000/svg">
<rect width="109" height="31" rx="15.5" fill="#F4F5F6"/>
<path d="M32.8334 20.8958H32.25V14.3217C32.25 13.96 32.0867 13.6217 31.8009 13.4L31.0834 12.84L31.0717 11.4108C31.0717 11.09 30.8092 10.8333 30.4884 10.8333H28.4992L27.7175 10.2267C27.2975 9.89417 26.7025 9.89417 26.2825 10.2267L22.1992 13.4C21.9134 13.6217 21.75 13.96 21.75 14.3158L21.7209 20.8958H21.1667C20.9275 20.8958 20.7292 21.0942 20.7292 21.3333C20.7292 21.5725 20.9275 21.7708 21.1667 21.7708H32.8334C33.0725 21.7708 33.2709 21.5725 33.2709 21.3333C33.2709 21.0942 33.0725 20.8958 32.8334 20.8958ZM23.7917 15.9375V15.0625C23.7917 14.7417 24.0542 14.4792 24.375 14.4792H25.5417C25.8625 14.4792 26.125 14.7417 26.125 15.0625V15.9375C26.125 16.2583 25.8625 16.5208 25.5417 16.5208H24.375C24.0542 16.5208 23.7917 16.2583 23.7917 15.9375ZM28.4584 20.8958H25.5417V19.2917C25.5417 18.8075 25.9325 18.4167 26.4167 18.4167H27.5834C28.0675 18.4167 28.4584 18.8075 28.4584 19.2917V20.8958ZM30.2084 15.9375C30.2084 16.2583 29.9459 16.5208 29.625 16.5208H28.4584C28.1375 16.5208 27.875 16.2583 27.875 15.9375V15.0625C27.875 14.7417 28.1375 14.4792 28.4584 14.4792H29.625C29.9459 14.4792 30.2084 14.7417 30.2084 15.0625V15.9375Z" fill="black"/>
<path d="M54.7264 16.148H52.9864V20H52.1224V16.148H50.3704L47.8024 20H46.7704L49.6504 15.668L46.9864 11.6H47.9464L50.3584 15.368H52.1224V11.6H52.9864V15.368H54.7264L57.1504 11.6H58.1104L55.4464 15.668L58.3264 20H57.2944L54.7264 16.148ZM59.7061 13.688H60.5581V18.704L64.7701 13.688H65.5261V20H64.6741V14.984L60.4741 20H59.7061V13.688ZM73.1279 13.688V20H72.2759V14.444H69.2519L69.1679 16.004C69.1039 17.316 68.9519 18.324 68.7119 19.028C68.4719 19.732 68.0439 20.084 67.4279 20.084C67.2599 20.084 67.0559 20.052 66.8159 19.988L66.8759 19.256C67.0199 19.288 67.1199 19.304 67.1759 19.304C67.5039 19.304 67.7519 19.152 67.9199 18.848C68.0879 18.544 68.1999 18.168 68.2559 17.72C68.3119 17.272 68.3599 16.68 68.3999 15.944L68.5079 13.688H73.1279ZM78.2619 15.92C79.0539 15.928 79.6539 16.104 80.0619 16.448C80.4779 16.792 80.6859 17.288 80.6859 17.936C80.6859 18.608 80.4619 19.124 80.0139 19.484C79.5739 19.844 78.9339 20.02 78.0939 20.012L75.5499 20V13.688H76.4019V15.896L78.2619 15.92ZM78.0459 19.364C78.6299 19.372 79.0699 19.256 79.3659 19.016C79.6699 18.768 79.8219 18.408 79.8219 17.936C79.8219 17.472 79.6739 17.128 79.3779 16.904C79.0819 16.68 78.6379 16.564 78.0459 16.556L76.4019 16.532V19.34L78.0459 19.364ZM87.8316 17.108H82.5516C82.5996 17.764 82.8516 18.296 83.3076 18.704C83.7636 19.104 84.3396 19.304 85.0356 19.304C85.4276 19.304 85.7876 19.236 86.1156 19.1C86.4436 18.956 86.7276 18.748 86.9676 18.476L87.4476 19.028C87.1676 19.364 86.8156 19.62 86.3916 19.796C85.9756 19.972 85.5156 20.06 85.0116 20.06C84.3636 20.06 83.7876 19.924 83.2836 19.652C82.7876 19.372 82.3996 18.988 82.1196 18.5C81.8396 18.012 81.6996 17.46 81.6996 16.844C81.6996 16.228 81.8316 15.676 82.0956 15.188C82.3676 14.7 82.7356 14.32 83.1996 14.048C83.6716 13.776 84.1996 13.64 84.7836 13.64C85.3676 13.64 85.8916 13.776 86.3556 14.048C86.8196 14.32 87.1836 14.7 87.4476 15.188C87.7116 15.668 87.8436 16.22 87.8436 16.844L87.8316 17.108ZM84.7836 14.372C84.1756 14.372 83.6636 14.568 83.2476 14.96C82.8396 15.344 82.6076 15.848 82.5516 16.472H87.0276C86.9716 15.848 86.7356 15.344 86.3196 14.96C85.9116 14.568 85.3996 14.372 84.7836 14.372Z" fill="black"/>
</svg>
