<svg width="89" height="31" viewBox="0 0 89 31" fill="none" xmlns="http://www.w3.org/2000/svg">
<rect width="89" height="31" rx="15.5" fill="#F4F5F6"/>
<path d="M31.2234 11.7551H30.99L29.0184 9.78341C28.8609 9.62591 28.6042 9.62591 28.4409 9.78341C28.2834 9.94091 28.2834 10.1976 28.4409 10.3609L29.835 11.7551H24.165L25.5592 10.3609C25.7167 10.2034 25.7167 9.94674 25.5592 9.78341C25.4017 9.62591 25.145 9.62591 24.9817 9.78341L23.0159 11.7551H22.7825C22.2575 11.7551 21.1667 11.7551 21.1667 13.2484C21.1667 13.8142 21.2834 14.1876 21.5284 14.4326C21.6684 14.5784 21.8375 14.6542 22.0184 14.6951C22.1875 14.7359 22.3684 14.7417 22.5434 14.7417H31.4567C31.6375 14.7417 31.8067 14.7301 31.97 14.6951C32.46 14.5784 32.8334 14.2284 32.8334 13.2484C32.8334 11.7551 31.7425 11.7551 31.2234 11.7551Z" fill="black"/>
<path d="M31.1126 15.5H22.8409C22.4792 15.5 22.2051 15.8208 22.2634 16.1767L22.7534 19.175C22.9167 20.1783 23.3542 21.3333 25.2967 21.3333H28.5692C30.5351 21.3333 30.8851 20.3475 31.0951 19.245L31.6842 16.1942C31.7542 15.8325 31.4801 15.5 31.1126 15.5ZM26.1892 19.2625C26.1892 19.49 26.0084 19.6708 25.7867 19.6708C25.5592 19.6708 25.3784 19.49 25.3784 19.2625V17.3375C25.3784 17.1158 25.5592 16.9292 25.7867 16.9292C26.0084 16.9292 26.1892 17.1158 26.1892 17.3375V19.2625ZM28.6859 19.2625C28.6859 19.49 28.5051 19.6708 28.2776 19.6708C28.0559 19.6708 27.8692 19.49 27.8692 19.2625V17.3375C27.8692 17.1158 28.0559 16.9292 28.2776 16.9292C28.5051 16.9292 28.6859 17.1158 28.6859 17.3375V19.2625Z" fill="black"/>
<path d="M53.4947 19.232V20H47.5547V11.6H53.3147V12.368H48.4427V15.356H52.7867V16.112H48.4427V19.232H53.4947ZM61.4168 19.256V21.524H60.6128V20H54.9608V21.524H54.1568V19.256H54.5168C54.9408 19.232 55.2288 18.92 55.3808 18.32C55.5328 17.72 55.6368 16.88 55.6928 15.8L55.7768 13.688H60.4328V19.256H61.4168ZM56.4728 15.848C56.4328 16.744 56.3568 17.484 56.2448 18.068C56.1328 18.644 55.9328 19.04 55.6448 19.256H59.5808V14.444H56.5448L56.4728 15.848ZM65.2492 13.64C66.0732 13.64 66.7052 13.848 67.1452 14.264C67.5852 14.672 67.8052 15.28 67.8052 16.088V20H66.9892V19.016C66.7972 19.344 66.5132 19.6 66.1372 19.784C65.7692 19.968 65.3292 20.06 64.8172 20.06C64.1132 20.06 63.5532 19.892 63.1372 19.556C62.7212 19.22 62.5132 18.776 62.5132 18.224C62.5132 17.688 62.7052 17.256 63.0892 16.928C63.4812 16.6 64.1012 16.436 64.9492 16.436H66.9532V16.052C66.9532 15.508 66.8012 15.096 66.4972 14.816C66.1932 14.528 65.7492 14.384 65.1652 14.384C64.7652 14.384 64.3812 14.452 64.0132 14.588C63.6452 14.716 63.3292 14.896 63.0652 15.128L62.6812 14.492C63.0012 14.22 63.3852 14.012 63.8332 13.868C64.2812 13.716 64.7532 13.64 65.2492 13.64ZM64.9492 19.388C65.4292 19.388 65.8412 19.28 66.1852 19.064C66.5292 18.84 66.7852 18.52 66.9532 18.104V17.072H64.9732C63.8932 17.072 63.3532 17.448 63.3532 18.2C63.3532 18.568 63.4932 18.86 63.7732 19.076C64.0532 19.284 64.4452 19.388 64.9492 19.388Z" fill="black"/>
</svg>
