<svg width="111" height="31" viewBox="0 0 111 31" fill="none" xmlns="http://www.w3.org/2000/svg">
<rect width="111" height="31" rx="15.5" fill="#F4F5F6"/>
<path d="M29.3333 9.6665H24.6667C22.3333 9.6665 21.1667 10.8332 21.1667 13.1665V20.7498C21.1667 21.0707 21.4292 21.3332 21.75 21.3332H29.3333C31.6667 21.3332 32.8333 20.1665 32.8333 17.8332V13.1665C32.8333 10.8332 31.6667 9.6665 29.3333 9.6665ZM28.1667 17.3957H24.0833C23.8442 17.3957 23.6458 17.1973 23.6458 16.9582C23.6458 16.719 23.8442 16.5207 24.0833 16.5207H28.1667C28.4058 16.5207 28.6042 16.719 28.6042 16.9582C28.6042 17.1973 28.4058 17.3957 28.1667 17.3957ZM29.9167 14.479H24.0833C23.8442 14.479 23.6458 14.2807 23.6458 14.0415C23.6458 13.8023 23.8442 13.604 24.0833 13.604H29.9167C30.1558 13.604 30.3542 13.8023 30.3542 14.0415C30.3542 14.2807 30.1558 14.479 29.9167 14.479Z" fill="black"/>
<path d="M55.2726 19.232V21.884H54.4446V20H47.1126L47.1006 21.884H46.2726L46.2846 19.232H46.7046C47.2566 19.2 47.6406 18.764 47.8566 17.924C48.0726 17.076 48.2046 15.876 48.2526 14.324L48.3486 11.6H54.0126V19.232H55.2726ZM49.0446 14.408C49.0046 15.688 48.9046 16.744 48.7446 17.576C48.5926 18.4 48.3326 18.952 47.9646 19.232H53.1366V12.368H49.1166L49.0446 14.408ZM60.132 13.64C60.724 13.64 61.26 13.776 61.74 14.048C62.22 14.312 62.596 14.688 62.868 15.176C63.14 15.664 63.276 16.22 63.276 16.844C63.276 17.476 63.14 18.036 62.868 18.524C62.596 19.012 62.22 19.392 61.74 19.664C61.268 19.928 60.732 20.06 60.132 20.06C59.62 20.06 59.156 19.956 58.74 19.748C58.332 19.532 57.996 19.22 57.732 18.812V22.328H56.88V13.688H57.696V14.936C57.952 14.52 58.288 14.2 58.704 13.976C59.128 13.752 59.604 13.64 60.132 13.64ZM60.072 19.304C60.512 19.304 60.912 19.204 61.272 19.004C61.632 18.796 61.912 18.504 62.112 18.128C62.32 17.752 62.424 17.324 62.424 16.844C62.424 16.364 62.32 15.94 62.112 15.572C61.912 15.196 61.632 14.904 61.272 14.696C60.912 14.488 60.512 14.384 60.072 14.384C59.624 14.384 59.22 14.488 58.86 14.696C58.508 14.904 58.228 15.196 58.02 15.572C57.82 15.94 57.72 16.364 57.72 16.844C57.72 17.324 57.82 17.752 58.02 18.128C58.228 18.504 58.508 18.796 58.86 19.004C59.22 19.204 59.624 19.304 60.072 19.304ZM70.2948 13.688L67.1388 20.756C66.8828 21.348 66.5868 21.768 66.2508 22.016C65.9148 22.264 65.5108 22.388 65.0388 22.388C64.7348 22.388 64.4508 22.34 64.1868 22.244C63.9228 22.148 63.6947 22.004 63.5027 21.812L63.8988 21.176C64.2188 21.496 64.6028 21.656 65.0508 21.656C65.3388 21.656 65.5828 21.576 65.7828 21.416C65.9908 21.256 66.1828 20.984 66.3588 20.6L66.6348 19.988L63.8148 13.688H64.7028L67.0788 19.052L69.4548 13.688H70.2948ZM76.0862 14.444H72.4742V20H71.6222V13.688H76.0862V14.444ZM79.6285 20.06C79.0205 20.06 78.4725 19.924 77.9845 19.652C77.4965 19.372 77.1125 18.988 76.8325 18.5C76.5525 18.012 76.4125 17.46 76.4125 16.844C76.4125 16.228 76.5525 15.676 76.8325 15.188C77.1125 14.7 77.4965 14.32 77.9845 14.048C78.4725 13.776 79.0205 13.64 79.6285 13.64C80.2365 13.64 80.7845 13.776 81.2725 14.048C81.7605 14.32 82.1405 14.7 82.4125 15.188C82.6925 15.676 82.8325 16.228 82.8325 16.844C82.8325 17.46 82.6925 18.012 82.4125 18.5C82.1405 18.988 81.7605 19.372 81.2725 19.652C80.7845 19.924 80.2365 20.06 79.6285 20.06ZM79.6285 19.304C80.0765 19.304 80.4765 19.204 80.8285 19.004C81.1885 18.796 81.4685 18.504 81.6685 18.128C81.8685 17.752 81.9685 17.324 81.9685 16.844C81.9685 16.364 81.8685 15.936 81.6685 15.56C81.4685 15.184 81.1885 14.896 80.8285 14.696C80.4765 14.488 80.0765 14.384 79.6285 14.384C79.1805 14.384 78.7765 14.488 78.4165 14.696C78.0645 14.896 77.7845 15.184 77.5765 15.56C77.3765 15.936 77.2765 16.364 77.2765 16.844C77.2765 17.324 77.3765 17.752 77.5765 18.128C77.7845 18.504 78.0645 18.796 78.4165 19.004C78.7765 19.204 79.1805 19.304 79.6285 19.304ZM90.1734 17.108H84.8934C84.9414 17.764 85.1934 18.296 85.6494 18.704C86.1054 19.104 86.6814 19.304 87.3774 19.304C87.7694 19.304 88.1294 19.236 88.4574 19.1C88.7854 18.956 89.0694 18.748 89.3094 18.476L89.7894 19.028C89.5094 19.364 89.1574 19.62 88.7334 19.796C88.3174 19.972 87.8574 20.06 87.3534 20.06C86.7054 20.06 86.1294 19.924 85.6254 19.652C85.1294 19.372 84.7414 18.988 84.4614 18.5C84.1814 18.012 84.0414 17.46 84.0414 16.844C84.0414 16.228 84.1734 15.676 84.4374 15.188C84.7094 14.7 85.0774 14.32 85.5414 14.048C86.0134 13.776 86.5414 13.64 87.1254 13.64C87.7094 13.64 88.2334 13.776 88.6974 14.048C89.1614 14.32 89.5254 14.7 89.7894 15.188C90.0534 15.668 90.1854 16.22 90.1854 16.844L90.1734 17.108ZM87.1254 14.372C86.5174 14.372 86.0054 14.568 85.5894 14.96C85.1814 15.344 84.9494 15.848 84.8934 16.472H89.3694C89.3134 15.848 89.0774 15.344 88.6614 14.96C88.2534 14.568 87.7414 14.372 87.1254 14.372Z" fill="black"/>
</svg>
