<svg width="133" height="31" viewBox="0 0 133 31" fill="none" xmlns="http://www.w3.org/2000/svg">
<rect width="133" height="31" rx="15.5" fill="#F4F5F6"/>
<path d="M32.6875 13.1667C32.6875 13.4059 32.4892 13.6042 32.25 13.6042H21.75C21.5108 13.6042 21.3125 13.4059 21.3125 13.1667C21.3125 12.9275 21.5108 12.7292 21.75 12.7292H22.345L22.5667 11.6734C22.7767 10.6525 23.2142 9.71338 24.9525 9.71338H29.0475C30.7858 9.71338 31.2233 10.6525 31.4333 11.6734L31.655 12.7292H32.25C32.4892 12.7292 32.6875 12.9275 32.6875 13.1667Z" fill="black"/>
<path d="M32.9383 16.4682C32.8508 15.5057 32.5941 14.479 30.7216 14.479H23.2783C21.4058 14.479 21.1549 15.5057 21.0616 16.4682L20.7349 20.0207C20.6941 20.464 20.8399 20.9073 21.1433 21.2398C21.4524 21.5782 21.8899 21.7707 22.3566 21.7707H23.4533C24.3983 21.7707 24.5791 21.2282 24.6958 20.8723L24.8124 20.5223C24.9466 20.1198 24.9816 20.0207 25.5066 20.0207H28.4933C29.0183 20.0207 29.0358 20.079 29.1874 20.5223L29.3041 20.8723C29.4208 21.2282 29.6016 21.7707 30.5466 21.7707H31.6433C32.1041 21.7707 32.5474 21.5782 32.8566 21.2398C33.1599 20.9073 33.3058 20.464 33.2649 20.0207L32.9383 16.4682ZM25.2499 17.6873H23.4999C23.2608 17.6873 23.0624 17.489 23.0624 17.2498C23.0624 17.0107 23.2608 16.8123 23.4999 16.8123H25.2499C25.4891 16.8123 25.6874 17.0107 25.6874 17.2498C25.6874 17.489 25.4891 17.6873 25.2499 17.6873ZM30.4999 17.6873H28.7499C28.5108 17.6873 28.3124 17.489 28.3124 17.2498C28.3124 17.0107 28.5108 16.8123 28.7499 16.8123H30.4999C30.7391 16.8123 30.9374 17.0107 30.9374 17.2498C30.9374 17.489 30.7391 17.6873 30.4999 17.6873Z" fill="black"/>
<path d="M53.2538 12.368H50.3018V20H49.4258V12.368H46.4738V11.6H53.2538V12.368ZM57.6964 13.64C58.2884 13.64 58.8244 13.776 59.3044 14.048C59.7844 14.312 60.1604 14.688 60.4324 15.176C60.7044 15.664 60.8404 16.22 60.8404 16.844C60.8404 17.476 60.7044 18.036 60.4324 18.524C60.1604 19.012 59.7844 19.392 59.3044 19.664C58.8324 19.928 58.2964 20.06 57.6964 20.06C57.1844 20.06 56.7204 19.956 56.3044 19.748C55.8964 19.532 55.5604 19.22 55.2964 18.812V22.328H54.4444V13.688H55.2604V14.936C55.5164 14.52 55.8524 14.2 56.2684 13.976C56.6924 13.752 57.1684 13.64 57.6964 13.64ZM57.6364 19.304C58.0764 19.304 58.4764 19.204 58.8364 19.004C59.1964 18.796 59.4764 18.504 59.6764 18.128C59.8844 17.752 59.9884 17.324 59.9884 16.844C59.9884 16.364 59.8844 15.94 59.6764 15.572C59.4764 15.196 59.1964 14.904 58.8364 14.696C58.4764 14.488 58.0764 14.384 57.6364 14.384C57.1884 14.384 56.7844 14.488 56.4244 14.696C56.0724 14.904 55.7924 15.196 55.5844 15.572C55.3844 15.94 55.2844 16.364 55.2844 16.844C55.2844 17.324 55.3844 17.752 55.5844 18.128C55.7924 18.504 56.0724 18.796 56.4244 19.004C56.7844 19.204 57.1884 19.304 57.6364 19.304ZM64.8078 13.64C65.6318 13.64 66.2638 13.848 66.7038 14.264C67.1438 14.672 67.3638 15.28 67.3638 16.088V20H66.5478V19.016C66.3558 19.344 66.0718 19.6 65.6958 19.784C65.3278 19.968 64.8878 20.06 64.3758 20.06C63.6718 20.06 63.1118 19.892 62.6958 19.556C62.2798 19.22 62.0718 18.776 62.0718 18.224C62.0718 17.688 62.2638 17.256 62.6478 16.928C63.0398 16.6 63.6598 16.436 64.5078 16.436H66.5118V16.052C66.5118 15.508 66.3598 15.096 66.0558 14.816C65.7518 14.528 65.3078 14.384 64.7238 14.384C64.3238 14.384 63.9398 14.452 63.5718 14.588C63.2038 14.716 62.8878 14.896 62.6238 15.128L62.2398 14.492C62.5598 14.22 62.9438 14.012 63.3918 13.868C63.8398 13.716 64.3118 13.64 64.8078 13.64ZM64.5078 19.388C64.9878 19.388 65.3998 19.28 65.7438 19.064C66.0878 18.84 66.3438 18.52 66.5118 18.104V17.072H64.5318C63.4518 17.072 62.9118 17.448 62.9118 18.2C62.9118 18.568 63.0518 18.86 63.3318 19.076C63.6118 19.284 64.0038 19.388 64.5078 19.388ZM69.6319 13.688H70.4839V16.484H74.4559V13.688H75.3079V20H74.4559V17.216H70.4839V20H69.6319V13.688ZM80.3696 20.06C79.7456 20.06 79.1856 19.924 78.6896 19.652C78.2016 19.38 77.8176 19 77.5376 18.512C77.2576 18.016 77.1176 17.46 77.1176 16.844C77.1176 16.228 77.2576 15.676 77.5376 15.188C77.8176 14.7 78.2016 14.32 78.6896 14.048C79.1856 13.776 79.7456 13.64 80.3696 13.64C80.9136 13.64 81.3976 13.748 81.8216 13.964C82.2536 14.172 82.5936 14.48 82.8416 14.888L82.2056 15.32C81.9976 15.008 81.7336 14.776 81.4136 14.624C81.0936 14.464 80.7456 14.384 80.3696 14.384C79.9136 14.384 79.5016 14.488 79.1336 14.696C78.7736 14.896 78.4896 15.184 78.2816 15.56C78.0816 15.936 77.9816 16.364 77.9816 16.844C77.9816 17.332 78.0816 17.764 78.2816 18.14C78.4896 18.508 78.7736 18.796 79.1336 19.004C79.5016 19.204 79.9136 19.304 80.3696 19.304C80.7456 19.304 81.0936 19.228 81.4136 19.076C81.7336 18.924 81.9976 18.692 82.2056 18.38L82.8416 18.812C82.5936 19.22 82.2536 19.532 81.8216 19.748C81.3896 19.956 80.9056 20.06 80.3696 20.06ZM90.1553 13.688V20H89.3033V14.444H85.3433V20H84.4913V13.688H90.1553ZM95.1812 20.06C94.5732 20.06 94.0252 19.924 93.5372 19.652C93.0492 19.372 92.6652 18.988 92.3852 18.5C92.1052 18.012 91.9652 17.46 91.9652 16.844C91.9652 16.228 92.1052 15.676 92.3852 15.188C92.6652 14.7 93.0492 14.32 93.5372 14.048C94.0252 13.776 94.5732 13.64 95.1812 13.64C95.7892 13.64 96.3372 13.776 96.8252 14.048C97.3132 14.32 97.6932 14.7 97.9652 15.188C98.2452 15.676 98.3852 16.228 98.3852 16.844C98.3852 17.46 98.2452 18.012 97.9652 18.5C97.6932 18.988 97.3132 19.372 96.8252 19.652C96.3372 19.924 95.7892 20.06 95.1812 20.06ZM95.1812 19.304C95.6292 19.304 96.0292 19.204 96.3812 19.004C96.7412 18.796 97.0212 18.504 97.2212 18.128C97.4212 17.752 97.5212 17.324 97.5212 16.844C97.5212 16.364 97.4212 15.936 97.2212 15.56C97.0212 15.184 96.7412 14.896 96.3812 14.696C96.0292 14.488 95.6292 14.384 95.1812 14.384C94.7332 14.384 94.3292 14.488 93.9692 14.696C93.6172 14.896 93.3372 15.184 93.1292 15.56C92.9292 15.936 92.8292 16.364 92.8292 16.844C92.8292 17.324 92.9292 17.752 93.1292 18.128C93.3372 18.504 93.6172 18.796 93.9692 19.004C94.3292 19.204 94.7332 19.304 95.1812 19.304ZM103.458 13.64C104.05 13.64 104.586 13.776 105.066 14.048C105.546 14.312 105.922 14.688 106.194 15.176C106.466 15.664 106.602 16.22 106.602 16.844C106.602 17.476 106.466 18.036 106.194 18.524C105.922 19.012 105.546 19.392 105.066 19.664C104.594 19.928 104.058 20.06 103.458 20.06C102.946 20.06 102.482 19.956 102.066 19.748C101.658 19.532 101.322 19.22 101.058 18.812V22.328H100.206V13.688H101.022V14.936C101.278 14.52 101.614 14.2 102.03 13.976C102.454 13.752 102.93 13.64 103.458 13.64ZM103.398 19.304C103.838 19.304 104.238 19.204 104.598 19.004C104.958 18.796 105.238 18.504 105.438 18.128C105.646 17.752 105.75 17.324 105.75 16.844C105.75 16.364 105.646 15.94 105.438 15.572C105.238 15.196 104.958 14.904 104.598 14.696C104.238 14.488 103.838 14.384 103.398 14.384C102.95 14.384 102.546 14.488 102.186 14.696C101.834 14.904 101.554 15.196 101.346 15.572C101.146 15.94 101.046 16.364 101.046 16.844C101.046 17.324 101.146 17.752 101.346 18.128C101.554 18.504 101.834 18.796 102.186 19.004C102.546 19.204 102.95 19.304 103.398 19.304ZM112.638 14.444H110.25V20H109.398V14.444H107.01V13.688H112.638V14.444Z" fill="black"/>
</svg>
